<?xml version="1.0" encoding="UTF-8" standalone="no" ?>
<!DOCTYPE svg PUBLIC "-//W3C//DTD SVG 1.1//EN" "http://www.w3.org/Graphics/SVG/1.1/DTD/svg11.dtd">
<svg xmlns="http://www.w3.org/2000/svg" xmlns:xlink="http://www.w3.org/1999/xlink" version="1.1" width="1280" height="1024" viewBox="0 0 1280 1024" xml:space="preserve">
<desc>Created with Fabric.js 5.3.0</desc>
<defs>
</defs>
<g transform="matrix(1 0 0 1 640 512)" id="background-logo"  >
<rect style="stroke: none; stroke-width: 0; stroke-dasharray: none; stroke-linecap: butt; stroke-dashoffset: 0; stroke-linejoin: miter; stroke-miterlimit: 4; fill: rgb(26,26,26); fill-rule: nonzero; opacity: 1;"  paint-order="stroke"  x="-640" y="-512" rx="0" ry="0" width="1280" height="1024" />
</g>
<g transform="matrix(1.9211538461538462 0 0 1.9211538461538462 640.3637842299478 400.6833096597853)" id="logo-logo"  >
<g style=""  paint-order="stroke"   >
		<g transform="matrix(0.8490781835508644 0 0 0.8490781835508644 -35.21620320849752 0)"  >
<linearGradient id="SVGID_2_42732" gradientUnits="userSpaceOnUse" gradientTransform="matrix(1 0 0 1 0 0)"  x1="416.4782209" y1="347.2889553" x2="584.6484655" y2="352.7357649">
<stop offset="0%" style="stop-color:rgb(110,110,110);stop-opacity: 1"/>
<stop offset="100%" style="stop-color:rgb(86,86,86);stop-opacity: 1"/>
</linearGradient>
<path style="stroke: none; stroke-width: 1; stroke-dasharray: none; stroke-linecap: butt; stroke-dashoffset: 0; stroke-linejoin: miter; stroke-miterlimit: 4; fill: url(#SVGID_2_42732); fill-rule: nonzero; opacity: 1;"  paint-order="stroke"  transform=" translate(-465.50291599999997, -349.19148944999995)" d="M 436.4079093 332.787009 C 437.94788759999994 332.787009 439.37788059999997 332.2970188 440.55787349999997 331.4670016 L 449.03791659999996 336.8470066 L 449.147902 336.9170139 L 460.7279213 344.2569799 C 461.6178751 344.81697749999995 462.5578777 345.26698969999995 463.5478681 345.5769873 C 463.66792430000004 345.6170264 463.77790960000004 345.6570044 463.8979048 345.6869727 C 465.0078904 346.01698980000003 466.1679248 346.177024 467.3379079 346.177024 L 479.0578808 346.177024 L 479.0578808 341.1770239 L 467.3379079 341.1770239 C 465.947893 341.1770239 464.5879074 340.7870092 463.4079145 340.0370092 L 443.397901 327.3470065 C 443.5578742 326.77699920000003 443.6378913 326.1670138 443.6378913 325.5470187 C 443.6378913 321.5470186 440.3979005 318.3070283 436.40790949999996 318.3070283 C 432.40790869999995 318.3070283 429.16791789999996 321.5470186 429.16791789999996 325.5470187 C 429.16791789999996 329.54701880000005 432.40790869999995 332.78700910000003 436.40790949999996 332.78700910000003 Z M 436.4079093 322.3070283 C 438.01789499999995 322.3070283 439.34791229999996 323.4970308 439.58790259999995 325.0370088 C 439.62788059999997 325.2069917 439.63789039999995 325.37697460000004 439.63789039999995 325.5470186 C 439.63789039999995 327.0169893 438.64789999999994 328.2669894 437.2978631 328.65700400000003 C 437.01789479999997 328.7470309 436.71790689999995 328.78700890000005 436.4079093 328.78700890000005 C 434.61786989999996 328.78700890000005 433.1679185 327.32698690000007 433.1679185 325.54701860000006 C 433.1679185 323.76698930000003 434.61786989999996 322.30702830000007 436.4079093 322.30702830000007 Z M 503.7478878 312.0069792 C 503.7478878 308.9070035 501.2279288 306.38698389999996 498.1278916 306.38698389999996 L 490.9779269 306.38698389999996 C 488.4278776 306.38698389999996 485.977926 305.6269741 483.8778889 304.17702289999994 L 463.9779218 290.4569907999999 C 464.2279218 289.73702009999994 464.3578657 288.9569907999999 464.3578657 288.1570029999999 C 464.3578657 284.16701269999993 461.1178749 280.92702239999994 457.1178741 280.92702239999994 C 453.1278831 280.92702239999994 449.8878923 284.16701269999993 449.8878923 288.1570029999999 C 449.8878923 292.15700309999994 453.12788309999996 295.39699339999993 457.1178741 295.39699339999993 C 458.47792069999997 295.39699339999993 459.7478795 295.02699829999995 460.8278968 294.3670250999999 L 481.0478713 308.29701809999995 C 483.9779256 310.3169765999999 487.4179287 311.3869839999999 490.9779269 311.3869839999999 L 498.1278916 311.3869839999999 C 498.4679185 311.3869839999999 498.7478868 311.66701329999995 498.7478868 312.0069790999999 L 498.7478868 321.2370207999999 L 503.7478877 321.2370207999999 L 503.7478877 312.0069790999999 Z M 457.1178742 291.3969933 C 456.8678742 291.3969933 456.6178741 291.367025 456.38789360000004 291.3070275 C 454.95790070000004 290.9770104 453.88789310000004 289.6969811 453.88789310000004 288.15700300000003 C 453.88789310000004 286.3769737 455.33790560000006 284.9270225 457.1178742 284.9270225 C 458.83790630000004 284.9270225 460.2478797 286.2669884 460.3479163 287.9569908 C 460.357865 288.0269981 460.357865 288.08699570000005 460.357865 288.15700300000003 C 460.357865 289.9469811 458.90791360000003 291.3969933 457.1178742 291.3969933 Z M 416.7879105 333.4469821 L 416.7879105 316.0970061 C 416.7879105 313.29701819999997 418.027901 310.7270109 420.2678916 308.8570157 L 427.807871 302.2769985 C 428.5178931 303.7970181 429.5078835 305.1869717 430.7378642 306.3570157 L 423.5178921 312.6570036 C 422.0778894 313.8570158 421.78791129999996 315.1869719 421.78791129999996 316.0970061 L 421.78791129999996 333.4469821 C 421.78791129999996 337.706992 425.2578827 341.17702380000003 429.527903 341.17702380000003 L 444.63789119999996 341.17702380000003 L 452.6978903 346.17702390000005 L 429.527903 346.17702390000005 C 422.4978724 346.17702390000005 416.7879104 340.46700180000005 416.7879104 333.44698210000007 Z M 434.6679188 301.8169765 C 435.0678823 302.2769985 435.5279043 302.6869716 436.0379142 303.0370083 L 447.16792119999997 310.82698650000003 L 452.9679101 314.88698420000003 C 452.7578881 315.53700860000004 452.6579125 316.2270111 452.6579125 316.9469818 C 452.6579125 320.9469819 455.8979033 324.1869722 459.8979041 324.1869722 C 463.8878951 324.1869722 467.1278859 320.9469819 467.1278859 316.9469818 C 467.1278859 312.9469817 463.88789510000004 309.7069914 459.8979041 309.7069914 C 458.4478916 309.7069914 457.08790600000003 310.1369841 455.9579009 310.8769743 L 438.8979001 298.9369716 C 438.0478633 298.3470058 437.5379145 297.36702529999997 437.5379145 296.32698619999996 L 437.5379145 283.57698589999995 C 437.5379145 279.83699559999997 439.4278685 276.40700279999993 442.5879032 274.39699299999995 L 474.93788490000003 256.2569778999999 C 475.16792640000006 256.1269729999999 475.3678777 256.18697059999994 475.4978826 256.2669876999999 C 475.62788750000004 256.3369949999999 475.77791190000005 256.4870193999999 475.77791190000005 256.7569778999999 L 475.77791190000005 272.7470295999999 C 473.0179016000001 273.7470295999999 471.04786950000005 276.40700279999993 471.04786950000005 279.5269979999999 C 471.04786950000005 283.5269980999999 474.2879214000001 286.7669883999999 478.27791240000005 286.7669883999999 C 482.27791320000006 286.7669883999999 485.51790400000004 283.5269980999999 485.51790400000004 279.5269979999999 C 485.51790400000004 276.4070027999999 483.5478719 273.7470295999999 480.77791290000005 272.7470295999999 L 480.77791290000005 256.7569778999999 C 480.77791290000005 255.87697299999994 480.57790070000004 255.04701689999993 480.21791520000005 254.29701689999993 C 480.16792740000005 254.18697049999994 480.11787860000004 254.07698519999994 480.04787120000003 253.97700959999995 C 479.92787610000005 253.77699739999994 479.79787120000003 253.57698519999994 479.65791750000005 253.38698269999995 C 479.58791020000007 253.28700709999995 479.51790280000006 253.18697049999994 479.41792720000007 253.09700469999996 C 479.3479199000001 253.01698759999996 479.26790280000006 252.92702179999995 479.18788570000004 252.84700469999996 C 478.84791980000006 252.50697779999996 478.45790510000006 252.19698029999995 478.0279123 251.94698029999995 C 476.3078802 250.93697049999994 474.23787250000004 250.91701199999994 472.4878722 251.89699249999995 L 440.08790270000003 270.06697579999997 L 439.9779173 270.13698309999995 C 435.3178822 273.05702709999997 432.5379135 278.08699549999994 432.5379135 283.57698589999995 L 432.5379135 296.32698619999996 C 432.5379135 298.28700819999995 433.2378648 300.15700339999995 434.487865 301.6170254 C 434.5478626 301.6869717 434.6078601 301.756979 434.6679187 301.8169766 Z M 459.897904 313.7069914 C 459.937882 313.7069914 459.96791129999997 313.7069914 460.0078894 313.71700119999997 C 461.73787020000003 313.76698899999997 463.1278851 315.20699149999996 463.1278851 316.9469817 C 463.1278851 318.727011 461.6778726 320.18697199999997 459.89790400000004 320.18697199999997 C 458.30787680000003 320.18697199999997 456.97792050000004 319.02699879999994 456.71791070000006 317.51698899999997 C 456.67787160000006 317.33699629999995 456.6579131000001 317.13698409999995 456.6579131000001 316.9469817 C 456.6579131000001 315.1670134 458.10786450000006 313.7069914 459.8979039000001 313.7069914 Z M 478.2779123 276.2870076 C 479.28792230000005 276.2870076 480.1878858 276.74702959999996 480.7779128 277.4670003 C 481.23787380000005 278.02699789999997 481.51790320000003 278.7470296 481.51790320000003 279.52699789999997 C 481.51790320000003 281.31697599999995 480.0678907 282.76698819999996 478.27791240000005 282.76698819999996 C 476.49788280000007 282.76698819999996 475.04787030000006 281.31697599999995 475.04787030000006 279.52699789999997 C 475.04787030000006 278.7569784 475.31788990000007 278.0370076 475.77791190000005 277.4770101 C 476.36787780000003 276.75697829999996 477.2679024 276.2870076 478.27791240000005 276.2870076 Z M 486.817892 258.8070267 L 502.3778925 266.9369707 C 503.6379025 267.5970049 504.4179319 268.88698300000004 504.4179319 270.30702690000004 L 504.4179319 288.41701270000004 C 504.077905 288.5370078 503.7378781 288.6869712 503.4278804 288.87697360000004 C 503.26790719999997 288.95699070000006 503.1178828 289.0570273 502.96791939999997 289.15700290000007 C 501.767907 289.9469809000001 500.8178946 291.09700540000006 500.26790669999997 292.44698100000005 C 500.15792129999994 292.7270103000001 500.0578847 293.01698830000004 499.98787739999995 293.30702740000004 C 499.81789449999997 293.90700300000003 499.73787739999995 294.5269981 499.73787739999995 295.17702260000004 C 499.73787739999995 299.17702270000007 502.97792929999997 302.41701300000005 506.97792999999996 302.41701300000005 C 510.97793069999994 302.41701300000005 514.2179216 299.17702270000007 514.2179216 295.17702260000004 C 514.2179216 294.52699820000004 514.1379045 293.90700300000003 513.9679216 293.30702740000004 C 513.8979142999999 293.0069786 513.7978776 292.7270103 513.6878922999999 292.44698100000005 C 513.1379043999999 291.0869956 512.1878919999999 289.9469809 510.9878795999999 289.15700290000007 C 510.83791619999994 289.0570273000001 510.68789179999993 288.95699070000006 510.5279185999999 288.87697360000004 C 510.21792099999993 288.6869712 509.87789409999993 288.5370078 509.5379281999999 288.41701270000004 L 509.5379281999999 270.30702690000004 C 509.5379281999999 270.2569781 509.5379281999999 270.20699030000003 509.5478768999999 270.15700250000003 C 509.5078988999999 269.38698300000004 509.4179329999999 268.69698050000005 509.2879280999999 268.06697560000003 C 508.9479011999999 266.36702440000005 508.27791809999985 265.09700480000004 507.1878910999999 264.0169877 C 507.19790089999987 263.99702920000004 507.2079105999999 263.9870194 507.2179203999999 263.9770097 C 507.0779056999999 263.8470048 506.9179325999999 263.7270097 506.7578982999999 263.61702429999997 C 506.32790549999993 263.3070267 505.8178956999999 263.02699739999997 505.2378784999999 262.78700719999995 L 486.0879114999999 252.77699719999995 C 486.5578822999999 254.04701679999997 486.8178920999999 255.41701189999995 486.8178920999999 256.8369949 L 486.8178920999999 258.8070267 Z M 504.8178954 292.7769983 C 504.8678832 292.7170007 504.9278808 292.6670129 504.9978881 292.6170252 C 505.0678954 292.5669764 505.1379028 292.5069788 505.2179199 292.4670008 C 505.2879272 292.417013 505.35787350000004 292.3769739 505.42788090000005 292.3369959 C 505.47792970000006 292.30702759999997 505.53792730000004 292.2769983 505.59792490000007 292.24703009999996 C 505.6878907000001 292.20699099999996 505.7779176000001 292.16701299999994 505.86788340000004 292.1369837 C 505.94790050000006 292.10701539999997 506.03792740000006 292.0769861 506.1278932 292.05702759999997 C 506.39791280000003 291.97701049999995 506.6878909 291.93697139999995 506.97793 291.93697139999995 C 507.2679081 291.93697139999995 507.55788620000004 291.97701049999995 507.82790570000003 292.05702759999997 C 507.91793260000003 292.07698609999994 508.00789840000004 292.10701539999997 508.0879155 292.1369837 C 508.1778813 292.167013 508.2679082 292.20699099999996 508.357874 292.24703009999996 C 508.4179326 292.27699839999997 508.4779302 292.30702769999994 508.527918 292.3369959 C 508.6078741 292.3769739 508.6778814 292.417013 508.737879 292.4670008 C 508.81789610000004 292.5169886 508.8879034 292.5669764 508.95791080000004 292.6170252 C 509.0179084 292.667013 509.0779059 292.7170008 509.13790350000005 292.7769983 C 509.1979011 292.8169763 509.2478889000001 292.8670252 509.2978767000001 292.9270227 C 509.3879036000001 293.0069788 509.4679207000001 293.0970056 509.5379280000001 293.1969812 L 509.68789140000007 293.40700319999996 C 509.72793050000007 293.47701049999995 509.7679085000001 293.5370081 509.80788650000005 293.60701539999997 C 509.85787430000005 293.68697149999997 509.89791340000005 293.77699829999995 509.93789140000007 293.86702519999994 C 509.97793050000007 293.94698129999995 510.00789870000006 294.0370080999999 510.0379280000001 294.11702519999994 C 510.0779060000001 294.21700079999994 510.1078743000001 294.31697639999993 510.1278938000001 294.4270227999999 C 510.1679329000001 294.56697639999993 510.18789140000007 294.7270105999999 510.2079109000001 294.8769739999999 C 510.2179207000001 294.9770105999999 510.2179207000001 295.0769861999999 510.2179207000001 295.1770227999999 C 510.2179207000001 296.9569910999999 508.75789850000007 298.4170130999999 506.9779299000001 298.4170130999999 C 505.19790030000013 298.4170130999999 503.7378780000001 296.9569910999999 503.7378780000001 295.1770227999999 C 503.7378780000001 295.0769861999999 503.7378780000001 294.9770105999999 503.74788780000006 294.8769739999999 C 503.76790730000005 294.7270105999999 503.78792690000006 294.56697639999993 503.8279049000001 294.4270227999999 C 503.84792440000007 294.31697639999993 503.8778927000001 294.21700079999994 503.9179318000001 294.11702519999994 C 503.9479001000001 294.0370080999999 503.97792940000005 293.94698129999995 504.01790740000007 293.86702519999994 C 504.0578854000001 293.77699829999995 504.0979245000001 293.68697149999997 504.1479123000001 293.60701539999997 C 504.1778806000001 293.5370081 504.2179196000001 293.46700069999997 504.26790740000007 293.40700319999996 C 504.3078854000001 293.3369959 504.3578732000001 293.26698849999997 504.4179318000001 293.1969812 C 504.4878781000001 293.0970056 504.56789520000007 293.00697879999996 504.65792210000006 292.9270227 C 504.70790990000006 292.86702510000003 504.75789770000006 292.8169763 504.8178953000001 292.7769983 Z M 423.5178923 385.7259751 L 430.73786440000003 392.02596300000005 C 429.50788370000004 393.19600700000007 428.5178933 394.5859606 427.8078712 396.10598020000003 L 420.26789180000003 389.52596300000005 C 418.0279011 387.65596780000004 416.78791070000005 385.08596050000006 416.78791070000005 382.28597260000004 L 416.78791070000005 364.9359966 C 416.78791070000005 357.91597690000003 422.4978727000001 352.20595480000003 429.52790330000005 352.20595480000003 L 452.69789060000005 352.20595480000003 L 444.6378915 357.20595490000005 L 429.52790330000005 357.20595490000005 C 425.25788300000005 357.20595490000005 421.78791160000003 360.67598670000007 421.78791160000003 364.93599660000007 L 421.78791160000003 382.2859726000001 C 421.78791160000003 383.1960068000001 422.0778897 384.5259629000001 423.51789240000005 385.7259751000001 Z M 443.6378912 372.8359601 C 443.6378912 372.21596500000004 443.5578741 371.6059796 443.3979009 371.0359723 L 463.40791440000004 358.34596960000005 C 464.58790730000004 357.59596960000005 465.94789290000006 357.20595490000005 467.33790780000004 357.20595490000005 L 479.05788070000006 357.20595490000005 L 479.05788070000006 352.20595480000003 L 467.33790780000004 352.20595480000003 C 466.1679247 352.20595480000003 465.00789030000004 352.365989 463.8979047 352.69600610000003 C 463.77790960000004 352.72597440000004 463.6679242 352.76595240000006 463.54786800000005 352.80599150000006 C 462.55787760000004 353.11598910000004 461.617875 353.56600130000004 460.7279212 354.12599890000007 L 449.1479019 361.4659649000001 L 449.0379165 361.53597220000006 L 440.5578734 366.91597720000004 C 439.3778805 366.0859601 437.9478876 365.59596980000003 436.4079092 365.59596980000003 C 432.4079084 365.59596980000003 429.1679176 368.8359601 429.1679176 372.83596020000005 C 429.1679176 376.83596030000007 432.4079084 380.07595060000006 436.4079092 380.07595060000006 C 440.3979002 380.07595060000006 443.637891 376.83596030000007 443.637891 372.83596020000005 Z M 433.1679185 372.8359601 C 433.1679185 371.0559918 434.61786989999996 369.59596980000003 436.4079093 369.59596980000003 C 436.71790689999995 369.59596980000003 437.01789479999997 369.63594780000005 437.2978631 369.72597470000005 C 438.6479 370.11598940000005 439.63789039999995 371.36598940000005 439.63789039999995 372.8359601000001 C 439.63789039999995 373.0060040000001 439.62788059999997 373.1759870000001 439.58790259999995 373.34596990000006 C 439.34791229999996 374.88594800000004 438.01789499999995 376.07595040000007 436.4079093 376.07595040000007 C 434.61786989999996 376.07595040000007 433.1679185 374.61598940000005 433.1679185 372.8359601000001 Z M 490.9779269 391.9959948 L 498.1278916 391.9959948 C 501.2279288 391.9959948 503.7478878 389.4759752 503.7478878 386.3759995 L 503.7478878 377.14253979999995 L 498.7478869 377.14253979999995 L 498.7478869 386.3759995 C 498.7478869 386.7159653 498.4679186 386.99599459999996 498.1278917 386.99599459999996 L 490.977927 386.99599459999996 C 487.4179288 386.99599459999996 483.9779257 388.06600189999995 481.0478714 390.08596049999994 L 460.82789690000004 404.01595349999997 C 459.74787960000003 403.35598029999994 458.4779209 402.98598519999996 457.1178742 402.98598519999996 C 453.12788320000004 402.98598519999996 449.8878924 406.22597549999995 449.8878924 410.22597559999997 C 449.8878924 414.21596589999996 453.1278832 417.45595619999995 457.1178742 417.45595619999995 C 461.117875 417.45595619999995 464.3578658 414.21596589999996 464.3578658 410.22597559999997 C 464.3578658 409.4259878 464.2279219 408.64595849999995 463.9779219 407.9259878 L 483.87788900000004 394.20595569999995 C 485.977926 392.75600449999996 488.42787760000004 391.9959946999999 490.977927 391.9959946999999 Z M 460.3479163 410.4259879 C 460.2478797 412.1159904 458.8379063 413.4559562 457.1178742 413.4559562 C 455.3379056 413.4559562 453.88789310000004 412.006005 453.88789310000004 410.2259757 C 453.88789310000004 408.6859976 454.9579006 407.4059683 456.38789360000004 407.0759512 C 456.61787410000005 407.01595360000005 456.8678742 406.9859854 457.1178742 406.9859854 C 458.90791360000003 406.9859854 460.357865 408.4359976 460.357865 410.2259757 C 460.357865 410.295983 460.357865 410.3559806 460.3479163 410.4259879 Z M 499.2879261 433.0570309 C 499.7879262 434.5570309 500.5678946 436.0370114 501.75789729999997 437.4070066 L 486.08791139999994 445.607019 C 486.55788219999994 444.33699939999997 486.8178919999999 442.9670043 486.8178919999999 441.5470213 L 486.8178919999999 439.57698949999997 L 499.28792609999994 433.05703079999995 Z M 478.2779123 411.6159904 C 474.28792130000005 411.6159904 471.0478694 414.8559807 471.0478694 418.8559808 C 471.0478694 421.975976 473.01790150000005 424.63594919999997 475.7779118 425.63594919999997 L 475.7779118 441.62600089999995 C 475.7779118 441.8959593999999 475.6278874 442.04598379999993 475.4978825 442.1159911 C 475.3678776 442.1960082 475.1679264 442.25600579999997 474.9378848 442.12600089999995 L 442.5879031 423.9859858 C 439.4278683 421.975976 437.5379144 418.54598319999997 437.5379144 414.8059929 L 437.5379144 402.05599259999997 C 437.5379144 401.01595349999997 438.0478632 400.03597299999996 438.8979 399.44600719999994 L 455.9579008 387.50600449999996 C 457.0879059 388.24599479999995 458.4478915 388.67598739999994 459.897904 388.67598739999994 C 463.88789499999996 388.67598739999994 467.1278858 385.43599709999995 467.1278858 381.43599699999993 C 467.1278858 377.4359968999999 463.887895 374.1960065999999 459.897904 374.1960065999999 C 455.8979032 374.1960065999999 452.6579124 377.4359968999999 452.6579124 381.43599699999993 C 452.6579124 382.1559676999999 452.757888 382.84597019999995 452.96790999999996 383.4959945999999 L 447.16792109999994 387.5559922999999 L 436.03791409999997 395.3459704999999 C 435.52790419999997 395.6960070999999 435.0678822 396.1059802999999 434.6679187 396.5660022999999 C 434.6078601 396.6259998999999 434.54786249999995 396.69600719999994 434.487865 396.7659534999999 C 433.2378648 398.2259754999999 432.5379135 400.0959706999999 432.5379135 402.05599269999993 L 432.5379135 414.80599299999994 C 432.5379135 420.29598339999995 435.3178823 425.32595169999996 439.9779173 428.24599579999995 L 440.08790270000003 428.31600309999993 L 472.4878722 446.48598639999994 C 474.23787250000004 447.46596689999996 476.3078802 447.4460083999999 478.0279123 446.43599859999995 C 478.4579051 446.18599859999995 478.8479198 445.876001 479.18788570000004 445.53597419999994 C 479.26790280000006 445.4559570999999 479.3479199 445.36599129999996 479.41792720000007 445.28597419999994 C 479.51790280000006 445.1960083999999 479.58791010000004 445.0959717999999 479.65791750000005 444.9959961999999 C 479.79787110000007 444.8059937999999 479.927876 444.6059814999999 480.04787120000003 444.4059692999999 C 480.1178785 444.30599369999993 480.16792740000005 444.1960083999999 480.21791520000005 444.08596199999994 C 480.5779006000001 443.33596199999994 480.77791290000005 442.50600589999993 480.77791290000005 441.6260009999999 L 480.77791290000005 425.63594929999994 C 483.5478719 424.63594929999994 485.51790400000004 421.9759760999999 485.51790400000004 418.85598089999996 C 485.51790400000004 414.85598079999994 482.27791320000006 411.61599049999995 478.27791240000005 411.61599049999995 Z M 456.7179107 380.8659896 C 456.9779205 379.3559798 458.30787680000003 378.1960066 459.897904 378.1960066 C 461.6778726 378.1960066 463.12788509999996 379.6559676 463.12788509999996 381.43599689999996 C 463.12788509999996 383.17598719999995 461.7378702 384.61598969999994 460.00788939999995 384.6659774 C 459.96791139999993 384.67598719999995 459.93788209999997 384.67598719999995 459.8979039999999 384.67598719999995 C 458.1078645999999 384.67598719999995 456.65791319999994 383.21596519999997 456.65791319999994 381.43599689999996 C 456.65791319999994 381.24599449999994 456.6778716999999 381.04598219999997 456.7179107999999 380.8659896 Z M 480.7779128 420.9159784 C 480.1878858 421.63594909999995 479.28792230000005 422.0959711 478.2779123 422.0959711 C 477.2679023 422.0959711 476.36787780000003 421.6260004 475.7779118 420.9059686 C 475.3178897 420.345971 475.04787020000003 419.6260003 475.04787020000003 418.8559808 C 475.04787020000003 417.0660027 476.49788270000005 415.6159905 478.2779123 415.6159905 C 480.0678907 415.6159905 481.5179031 417.0660027 481.5179031 418.8559808 C 481.5179031 419.6359491 481.2378738 420.3559808 480.7779127 420.9159784 Z" stroke-linecap="round" />
</g>
		<g transform="matrix(0.8490781835508644 0 0 0.8490781835508644 -0.05001529003328642 0.00000433029876489854)"  >
<linearGradient id="SVGID_3_42733" gradientUnits="userSpaceOnUse" gradientTransform="matrix(1 0 0 1 -506.919818 -349.19149455)"  x1="433.0614895" y1="348.4730283" x2="564.2955566" y2="349.7496243">
<stop offset="27.93949%" style="stop-color:rgb(110,110,110);stop-opacity: 1"/>
<stop offset="100%" style="stop-color:rgb(86,86,86);stop-opacity: 1"/>
</linearGradient>
<rect style="stroke: none; stroke-width: 0; stroke-dasharray: none; stroke-linecap: butt; stroke-dashoffset: 0; stroke-linejoin: miter; stroke-miterlimit: 4; fill: url(#SVGID_3_42733); fill-rule: nonzero; opacity: 1;"  paint-order="stroke"  x="-23.8643662" y="-23.86436225" rx="6.4521278" ry="6.4521278" width="47.7287324" height="47.7287245" />
</g>
		<g transform="matrix(0.8490781835508644 0 0 0.8490781835508644 -0.04739278470174213 0.00044037439997168804)"  >
<linearGradient id="SVGID_4_42734" gradientUnits="userSpaceOnUse" gradientTransform="matrix(1 0 0 1 0 0)"  x1="494.3449863" y1="337.4935614" x2="523.579032" y2="364.6850538">
<stop offset="27.93949%" style="stop-color:rgb(134,134,134);stop-opacity: 1"/>
<stop offset="90.40281999999999%" style="stop-color:rgb(95,95,95);stop-opacity: 0"/>
</linearGradient>
<path style="stroke: none; stroke-width: 1; stroke-dasharray: none; stroke-linecap: butt; stroke-dashoffset: 0; stroke-linejoin: miter; stroke-miterlimit: 4; fill: url(#SVGID_4_42734); fill-rule: nonzero; opacity: 1;"  paint-order="stroke"  transform=" translate(-506.92290664999996, -349.1920081)" d="M 487.7779141 344.5669775 L 511.3279063 368.3369976 L 490.2279267 368.3369976 C 488.8778898 368.3369976 487.777914 367.237022 487.777914 365.8869853 L 487.777914 344.5669775 Z M 487.7779141 332.497031 L 487.7779141 338.5970067 L 517.3678854999999 368.3369976 L 523.6078769 368.3369976 C 524.7679112999999 368.3369976 525.7378822 367.5370098 525.997892 366.4569927 L 489.81789249999997 330.0869967 C 488.65791909999996 330.2769991 487.7779141 331.2870089 487.7779141 332.49703089999997 Z M 523.6078769 330.0470187 L 502.69789979999996 330.0470187 L 526.0678992999999 352.7669899 L 526.0678992999999 332.4970309 C 526.0678992999999 331.14699420000005 524.9679234999999 330.0470186 523.6078769 330.0470186 Z" stroke-linecap="round" />
</g>
		<g transform="matrix(0.8490781835508644 0 0 0.8490781835508644 35.21550356807427 4.245387685842e-8)"  >
<linearGradient id="SVGID_5_42735" gradientUnits="userSpaceOnUse" gradientTransform="matrix(1 0 0 1 0 0)"  x1="416.5447833" y1="345.2338252" x2="584.7150279" y2="350.6806347">
<stop offset="0%" style="stop-color:rgb(110,110,110);stop-opacity: 1"/>
<stop offset="100%" style="stop-color:rgb(86,86,86);stop-opacity: 1"/>
</linearGradient>
<path style="stroke: none; stroke-width: 1; stroke-dasharray: none; stroke-linecap: butt; stroke-dashoffset: 0; stroke-linejoin: miter; stroke-miterlimit: 4; fill: url(#SVGID_5_42735); fill-rule: nonzero; opacity: 1;"  paint-order="stroke"  transform=" translate(-548.4537068, -349.19148930000006)" d="M 550.0595421 345.6869727 C 550.1795372 345.6570044 550.2895226 345.6170264 550.4095788000001 345.5769873 C 551.3995692000001 345.2669897 552.3395718 344.8169775 553.2295256000001 344.2569799 L 564.8095449000001 336.9170139 L 564.9195303000001 336.8470066 L 573.3995734000001 331.4670016 C 574.5795663000001 332.2970187 576.0095592000001 332.787009 577.5495376000001 332.787009 C 581.5495384000001 332.787009 584.7895292000002 329.5470187 584.7895292000002 325.5470186 C 584.7895292000002 321.5470185 581.5495384000002 318.3070282 577.5495376000001 318.3070282 C 573.5595466000001 318.3070282 570.3195558000001 321.5470185 570.3195558000001 325.5470186 C 570.3195558000001 326.1670137 570.3995729000001 326.7769991 570.5595461000001 327.3470064 L 550.5495326000001 340.0370091 C 549.3695397000001 340.7870091 548.0095541000002 341.1770238 546.6195392000002 341.1770238 L 534.8995663000002 341.1770238 L 534.8995663000002 346.1770239 L 546.6195392000002 346.1770239 C 547.7895223000002 346.1770239 548.9495567000002 346.0169897 550.0595423000002 345.6869726 Z M 574.3695442 325.0370088 C 574.6095345 323.49703070000004 575.9395518 322.3070283 577.5495374999999 322.3070283 C 579.3395768999999 322.3070283 580.7895282999999 323.76698930000003 580.7895282999999 325.5470186 C 580.7895282999999 327.3269869 579.3395768999999 328.7870089 577.5495374999999 328.7870089 C 577.2395399 328.7870089 576.9395519999999 328.74703089999997 576.6595837 328.657004 C 575.3095468 328.2669893 574.3195564 327.0169893 574.3195564 325.54701859999994 C 574.3195564 325.37697469999995 574.3295662 325.20699169999995 574.3695442000001 325.03700879999997 Z M 556.8379247 295.3969934 C 560.8279157000001 295.3969934 564.0679065 292.1570031 564.0679065 288.157003 C 564.0679065 284.1670127 560.8279157000001 280.9270224 556.8379247 280.9270224 C 552.8379239000001 280.9270224 549.5979331 284.1670127 549.5979331 288.157003 C 549.5979331 288.95699079999997 549.727938 289.7370201 549.9779381 290.45699079999997 L 530.0779099 304.1770229 C 527.9779339 305.6269741 525.5279213 306.3869839 522.977933 306.3869839 L 515.8279072 306.3869839 C 512.727931 306.3869839 510.207911 308.90700350000003 510.207911 312.00697920000005 L 510.207911 321.23702090000006 L 515.2079119 321.23702090000006 L 515.2079119 312.00697920000005 C 515.2079119 311.66701340000003 515.4878802 311.38698410000006 515.8279071 311.38698410000006 L 522.9779328999999 311.38698410000006 C 526.5379310999999 311.38698410000006 529.9779341999999 310.3169768000001 532.9079274 308.2970182000001 L 553.1279019 294.36702520000006 C 554.2079192 295.0269984000001 555.477939 295.39699350000006 556.8379246 295.39699350000006 Z M 553.6078826 287.9569908 C 553.7079192 286.26698830000004 555.1178926 284.9270225 556.8379247 284.9270225 C 558.6178933 284.9270225 560.0679058000001 286.3769737 560.0679058000001 288.15700300000003 C 560.0679058000001 289.6969811 558.9978983000001 290.97701040000004 557.5679053 291.3070275 C 557.3379248 291.3670251 557.0879247 291.3969933 556.8379247 291.3969933 C 555.0478853000001 291.3969933 553.5979339 289.9469811 553.5979339 288.15700300000003 C 553.5979339 288.08699570000005 553.5979339 288.0269981 553.6078826 287.9569908 Z M 597.1695363 316.0970061 L 597.1695363 333.4469821 C 597.1695363 340.4670018 591.4595743 346.1770239 584.4295437 346.1770239 L 561.2595564 346.1770239 L 569.3195555 341.1770238 L 584.4295437 341.1770238 C 588.699564 341.1770238 592.1695354 337.70699199999996 592.1695354 333.44698209999996 L 592.1695354 316.09700609999993 C 592.1695354 315.18697189999995 591.8795573 313.85701579999994 590.4395546 312.65700359999994 L 583.2195825 306.3570156999999 C 584.4495632000001 305.1869716999999 585.4395536 303.79701809999995 586.1495757 302.27699849999993 L 593.6895551 308.8570156999999 C 595.9295458 310.7270108999999 597.1695362 313.2970181999999 597.1695362 316.09700609999993 Z M 535.6778865 286.7669884 C 539.6679385 286.7669884 542.9079294 283.5269981 542.9079294 279.526998 C 542.9079294 276.4070028 540.9378972999999 273.7470296 538.1778869999999 272.7470296 L 538.1778869999999 256.75697790000004 C 538.1778869999999 256.48701940000007 538.3279114 256.33699500000006 538.4579163 256.2669877 C 538.5879212 256.1869706 538.7879335 256.126973 539.017914 256.25697790000004 L 571.3678957 274.39699300000007 C 574.5279304999999 276.40700280000004 576.4179455 279.8369956000001 576.4179455 283.57698590000007 L 576.4179455 296.3269862000001 C 576.4179455 297.3670253000001 575.9079356 298.3470058000001 575.0578988999999 298.9369716000001 L 557.9978980999999 310.8769743000001 C 556.867893 310.1369840000001 555.5079073999999 309.7069914000001 554.0578949 309.7069914000001 C 550.0679038999999 309.7069914000001 546.8279130999999 312.9469817000001 546.8279130999999 316.9469818000001 C 546.8279130999999 320.94698190000014 550.0679038999999 324.1869722000001 554.0578949 324.1869722000001 C 558.0578956999999 324.1869722000001 561.2978865 320.94698190000014 561.2978865 316.9469818000001 C 561.2978865 316.22701110000014 561.1979109 315.5370086000001 560.9878889 314.88698420000014 L 566.7879388 310.82698650000015 L 577.9179458 303.03700830000014 C 578.4278946 302.68697170000013 578.8879167 302.27699850000016 579.2879412 301.8169765000001 C 579.3479388 301.75697890000015 579.4079363 301.6869716000001 579.4679338999999 301.61702530000014 C 580.7179341 300.15700330000016 581.4179465 298.28700810000015 581.4179465 296.3269861000001 L 581.4179465 283.5769858000001 C 581.4179465 278.0869954000001 578.6379167 273.0570271000001 573.9779427 270.1369830000001 L 573.8678963 270.0669757000001 L 541.4679268 251.8969924000001 C 539.7179265 250.9170119000001 537.6479188 250.9369704000001 535.9278866999999 251.9469802000001 C 535.4978938999999 252.1969802000001 535.1078792 252.5069778000001 534.7679132999999 252.8470046000001 C 534.6878962 252.9270217000001 534.6078790999999 253.0169875000001 534.5379327999999 253.0970046000001 C 534.4378962 253.1869704000001 534.3678888 253.2870070000001 534.2978814999999 253.3869826000001 C 534.1579278999999 253.5769850000001 534.0279229999999 253.7769973000001 533.9079277999999 253.9770095000001 C 533.8379204999999 254.0769851000001 533.7879326999999 254.1869704000001 533.7378838 254.29701680000008 C 533.3778983999999 255.04701680000008 533.1778860999999 255.87697290000008 533.1778860999999 256.7569778000001 L 533.1778860999999 272.74702950000005 C 530.4079270999999 273.74702950000005 528.4378949999999 276.4070027000001 528.4378949999999 279.5269979 C 528.4378949999999 283.52699800000005 531.6778857999999 286.76698830000004 535.6778866 286.76698830000004 Z M 557.2378881 317.5169891 C 556.9779393 319.02699889999997 555.647922 320.1869721 554.0578948 320.1869721 C 552.2779262 320.1869721 550.8279137 318.72701109999997 550.8279137 316.9469818 C 550.8279137 315.2069915 552.2179285999999 313.766989 553.9479094 313.7170013 C 553.9878874 313.7069915 554.0179167 313.7069915 554.0578948 313.7069915 C 555.8479341999999 313.7069915 557.2978856 315.1670135 557.2978856 316.9469818 C 557.2978856 317.13698420000003 557.2779270999999 317.3369965 557.237888 317.5169891 Z M 533.177886 277.4670003 C 533.7679129999999 276.7470296 534.6679375 276.2870076 535.6778865 276.2870076 C 536.6878965 276.2870076 537.587921 276.75697829999996 538.177887 277.4770101 C 538.6379091 278.03700769999995 538.9079286000001 278.7569784 538.9079286000001 279.52699789999997 C 538.9079286000001 281.31697599999995 537.4579161000001 282.76698819999996 535.6778865000001 282.76698819999996 C 533.8879081000001 282.76698819999996 532.4378957000001 281.31697599999995 532.4378957000001 279.52699789999997 C 532.4378957000001 278.74702959999996 532.7179250000002 278.02699789999997 533.1778861000001 277.4670003 Z M 514.7779192 265.2669878 C 514.2978776 263.7470293 513.5578872000001 262.2470292 512.4079236 260.8570145 L 527.8678874 252.77699719999998 C 527.3979165999999 254.0470168 527.1379068 255.41701189999998 527.1379068 256.8369949 L 527.1379068 258.8070267 L 514.7779191 265.2669878 Z M 597.1695363 364.9359966 L 597.1695363 382.28597260000004 C 597.1695363 385.08596050000006 595.9295458 387.65596780000004 593.6895552 389.52596300000005 L 586.1495758 396.10598020000003 C 585.4395537 394.5859606 584.4495633 393.196007 583.2195826 392.02596300000005 L 590.4395546999999 385.7259751 C 591.8795574 384.5259629 592.1695354999999 383.1960068 592.1695354999999 382.28597260000004 L 592.1695354999999 364.9359966 C 592.1695354999999 360.6759867 588.6995641 357.2059549 584.4295437999999 357.2059549 L 569.3195556 357.2059549 L 561.2595564999999 352.2059548 L 584.4295437999999 352.2059548 C 591.4595744 352.2059548 597.1695364 357.9159769 597.1695364 364.93599659999995 Z M 577.5495375 365.5959697 C 576.0095592 365.5959697 574.5795662 366.08595990000003 573.3995733 366.9159771 L 564.9195302 361.53597210000004 L 564.8095448 361.46596480000005 L 553.2295255 354.12599880000005 C 552.3395717000001 353.5660012000001 551.3995691 353.11598900000007 550.4095787 352.80599140000004 C 550.2895225 352.76595230000004 550.1795372 352.7259743 550.059542 352.696006 C 548.9495564 352.3659889 547.7895219999999 352.2059547 546.6195389 352.2059547 L 534.8995659999999 352.2059547 L 534.8995659999999 357.20595480000003 L 546.6195389 357.20595480000003 C 548.0095537999999 357.20595480000003 549.3695394 357.5959695 550.5495322999999 358.3459695 L 570.5595457999999 371.0359722 C 570.3995725999999 371.6059795 570.3195554999999 372.2159649 570.3195554999999 372.83596 C 570.3195554999999 376.8359601 573.5595462999999 380.0759504 577.5495372999999 380.0759504 C 581.5495380999998 380.0759504 584.7895288999999 376.8359601 584.7895288999999 372.83596 C 584.7895288999999 368.8359599 581.5495381 365.5959696 577.5495372999999 365.5959696 Z M 577.5495375 376.0759505 C 575.9395518 376.0759505 574.6095345 374.885948 574.3695442000001 373.34596999999997 C 574.3295662 373.1759871 574.3195564 373.00600419999995 574.3195564 372.8359602 C 574.3195564 371.3659895 575.3095468 370.1159894 576.6595837 369.72597479999996 C 576.9395519999999 369.63594789999996 577.2395399 369.59596989999994 577.5495374999999 369.59596989999994 C 579.3395768999999 369.59596989999994 580.7895282999999 371.0559918999999 580.7895282999999 372.83596019999993 C 580.7895282999999 374.61598949999996 579.3395768999999 376.0759504999999 577.5495374999999 376.0759504999999 Z M 556.8395726 417.4559563 C 560.8295636 417.4559563 564.0695544 414.21596600000004 564.0695544 410.22597570000005 C 564.0695544 406.2259756 560.8295636 402.98598530000004 556.8395726 402.98598530000004 C 555.479526 402.98598530000004 554.2095672 403.3559804 553.1295499 404.01595360000005 L 532.9095754 390.0859606 C 529.9795210999999 388.06600210000005 526.539518 386.99599470000004 522.9795198 386.99599470000004 L 515.8295551 386.99599470000004 C 515.4895282 386.99599470000004 515.2095599 386.7159654 515.2095599 386.37599960000006 L 515.2095599 377.14253990000003 L 510.20955900000007 377.14253990000003 L 510.20955900000007 386.37599960000006 C 510.20955900000007 389.4759753000001 512.7295180000001 391.9959949000001 515.8295552000001 391.9959949000001 L 522.9795199000001 391.9959949000001 C 525.5295692000001 391.9959949000001 527.9795208000002 392.75600470000006 530.0795579000002 394.2059559000001 L 549.9795250000002 407.92598800000013 C 549.7295250000002 408.6459587000001 549.5995811000003 409.42598800000013 549.5995811000003 410.2259758000001 C 549.5995811000003 414.2159661000001 552.8395719000002 417.4559564000001 556.8395727000003 417.4559564000001 Z M 556.8395726 406.9859854 C 557.0895726 406.9859854 557.3395727 407.0159537 557.5695532 407.0759512 C 558.9995461 407.40596830000004 560.0695537 408.6859976 560.0695537 410.2259757 C 560.0695537 412.006005 558.6195412000001 413.4559562 556.8395726 413.4559562 C 555.1195405 413.4559562 553.7095671 412.1159903 553.6095305 410.4259879 C 553.5995818 410.3559806 553.5995818 410.295983 553.5995818 410.2259757 C 553.5995818 408.4359976 555.0495332 406.9859854 556.8395726 406.9859854 Z M 527.1379069 439.5769896 L 511.57790639999996 431.4469845 C 510.31789639999994 430.78701129999996 509.53792799999997 429.4970333 509.53792799999997 428.0769893 L 509.53792799999997 409.9670035 C 509.70791089999994 409.9070059 509.87789389999995 409.83699859999996 510.0379281 409.7569815 C 510.20791099999997 409.6770254 510.3678842 409.5970084 510.5279184 409.5069815 C 511.9378918 408.7270132 513.0478774 407.4770132 513.6679336 405.9770132 C 513.7879287 405.6869741 513.8879043 405.3869863 513.9679214 405.0769888 C 514.1379043000001 404.4770132 514.2179214 403.8570181 514.2179214 403.2069936 C 514.2179214 399.20699349999995 510.97793060000004 395.96700319999997 506.9779298 395.96700319999997 C 502.977929 395.96700319999997 499.7378772 399.20699349999995 499.7378772 403.2069936 C 499.7378772 403.857018 499.81789430000003 404.4770132 499.9878772 405.0769888 C 500.06789430000003 405.38698639999996 500.1679309 405.6869742 500.2879261 405.9770132 C 500.9079213 407.4770132 502.0179069 408.7270133 503.42788029999997 409.5069815 C 503.58791449999995 409.5970084 503.7478877 409.6770254 503.9179317 409.7569815 C 504.0779049 409.8369986 504.2478878 409.9070059 504.4179318 409.9670035 C 504.45790980000004 409.98702299999997 504.4978879 410.0069815 504.5379269 410.0169913 L 504.5379269 428.0769893 C 504.5379269 430.3969967 505.4378904 432.5570309 506.9779298 434.1670163 C 507.04787610000005 434.2470334 507.11788340000004 434.3169797 507.1979005 434.386987 C 507.5779055 434.7170041 507.9978884 435.02700169999997 508.4579105 435.32698949999997 L 511.0578866 436.81697979999996 L 511.0979257 436.83699929999995 L 527.8678874 445.6070189999999 C 527.3979165999999 444.3369993999999 527.1379068 442.9670042999999 527.1379068 441.5470212999999 L 527.1379068 439.5769894999999 Z M 509.1379035 405.6070181 C 509.0779059 405.6670157 509.0179084 405.71700350000003 508.9579108 405.7669912 C 508.8879035 405.816979 508.8178961 405.8670278 508.73787899999996 405.9170156 C 508.63790339999997 405.9870229 508.5379278 406.04702050000003 508.4278814 406.0970083 C 508.31789599999996 406.1570059 508.2079107 406.20699370000006 508.0879155 406.24703270000003 C 508.0078984 406.27700100000004 507.91793260000003 406.3070303 507.82790570000003 406.32698880000004 C 507.5578861 406.40700590000006 507.26790800000003 406.4469839 506.97793 406.4469839 C 506.6878909 406.4469839 506.39791280000003 406.4070059 506.1278932 406.32698880000004 C 506.0379274 406.30703030000006 505.9479005 406.27700100000004 505.86788340000004 406.24703270000003 C 505.74788830000006 406.20699360000003 505.63790290000003 406.15700580000004 505.52791750000006 406.0970083 C 505.41793210000003 406.04702050000003 505.3178955000001 405.9870229 505.2179199000001 405.9170156 C 505.13790280000006 405.8769765 505.0678955000001 405.816979 504.99788810000007 405.7669912 C 504.92788070000006 405.7170034 504.86788320000005 405.6670156 504.81789540000005 405.6070181 C 504.7578978000001 405.566979 504.70791 405.5169912 504.65792220000003 405.4569937 C 504.61788310000003 405.4170157 504.5779051 405.3769766 504.53792710000005 405.3369986 C 504.49788800000005 405.2870108 504.45791 405.237023 504.41793200000006 405.1869742 C 504.3578734000001 405.1170279 504.3078856000001 405.0470206 504.26790760000006 404.9770133 C 504.21791980000006 404.91701570000004 504.17788070000006 404.8470084 504.1479125000001 404.7770011 C 504.0078978000001 404.5270011 503.8979125000001 404.2470328 503.82790510000007 403.9569938 C 503.78792710000005 403.8169791 503.7679075000001 403.657006 503.74788800000005 403.5069816 C 503.73787820000007 403.407006 503.73787820000007 403.30703040000003 503.73787820000007 403.2069938 C 503.73787820000007 401.4270255 505.1979004000001 399.96700350000003 506.9779301000001 399.96700350000003 C 508.7578987000001 399.96700350000003 510.2179209000001 401.4270255 510.2179209000001 403.2069938 C 510.2179209000001 403.30703040000003 510.2179209000001 403.407006 510.2079111000001 403.5069816 C 510.1878916000001 403.657006 510.1679331000001 403.80703040000003 510.1278940000001 403.9569938 C 510.0578867000001 404.2470329 509.94790130000007 404.5270011 509.8078866000001 404.7770011 C 509.76790860000006 404.8470084 509.72793050000007 404.907006 509.6878915000001 404.9770133 C 509.6379037000001 405.0470206 509.5879159000001 405.117028 509.5379281000001 405.1869742 C 509.4679208000001 405.2770011 509.3879037000001 405.37697660000003 509.2978768000001 405.4569937 C 509.2478890000001 405.5169913 509.1979012000001 405.5669791 509.1379036000001 405.6070181 Z M 579.289528 396.5660022 C 578.8895645 396.10598020000003 578.4295425 395.69600710000003 577.9195326 395.3459704 L 566.7895256 387.5559922 L 560.9895367 383.4959945 C 561.1995587 382.8459701 561.2995343 382.1559676 561.2995343 381.4359969 C 561.2995343 377.4359968 558.0595435 374.1960065 554.0595427 374.1960065 C 550.0695516999999 374.1960065 546.8295608999999 377.4359968 546.8295608999999 381.4359969 C 546.8295608999999 385.43599700000004 550.0695516999999 388.67598730000003 554.0595427 388.67598730000003 C 555.5095551999999 388.67598730000003 556.8695408 388.2459946 557.9995458999999 387.50600440000005 L 575.0595466999999 399.44600710000003 C 575.9095834999999 400.03597290000005 576.4195322999999 401.01595340000006 576.4195322999999 402.05599250000006 L 576.4195322999999 414.80599280000007 C 576.4195322999999 418.54598310000006 574.5295782999999 421.9759759000001 571.3695435999999 423.98598570000007 L 539.0195618999999 442.12600080000004 C 538.7895203999999 442.25600570000006 538.5895690999998 442.19600810000003 538.4595641999998 442.11599100000007 C 538.3295592999998 442.0459837000001 538.1795348999998 441.8959593000001 538.1795348999998 441.62600080000004 L 538.1795348999998 425.63594910000006 C 540.9395451999998 424.63594910000006 542.9095772999998 421.97597590000004 542.9095772999998 418.8559807000001 C 542.9095772999998 414.85598060000007 539.6695253999998 411.6159903000001 535.6795343999999 411.6159903000001 C 531.6795335999999 411.6159903000001 528.4395427999998 414.85598060000007 528.4395427999998 418.8559807000001 C 528.4395427999998 421.9759759000001 530.4095748999998 424.63594910000006 533.1795338999998 425.63594910000006 L 533.1795338999998 441.62600080000004 C 533.1795338999998 442.50600570000006 533.3795460999997 443.33596180000006 533.7395315999999 444.08596180000006 C 533.7895193999999 444.19600820000005 533.8395681999998 444.30599350000006 533.9095755999998 444.40596910000005 C 534.0295706999998 444.60598130000005 534.1595755999998 444.80599350000006 534.2995292999998 444.99599600000005 C 534.3695365999998 445.09597160000004 534.4395439999998 445.19600820000005 534.5395195999998 445.28597400000007 C 534.6095268999999 445.3659911000001 534.6895439999998 445.45595690000005 534.7695610999998 445.53597400000007 C 535.1095269999998 445.87600090000007 535.4995416999998 446.1859984000001 535.9295344999998 446.4359984000001 C 537.6495665999998 447.44600820000005 539.7195742999999 447.4659667000001 541.4695745999999 446.48598620000007 L 573.8695440999999 428.31600290000006 L 573.9795294999999 428.2459956000001 C 578.6395645999999 425.32595160000005 581.4195332999999 420.2959832000001 581.4195332999999 414.80599280000007 L 581.4195332999999 402.05599250000006 C 581.4195332999999 400.0959705000001 580.719582 398.2259753000001 579.4695817999999 396.76595330000004 C 579.4095841999999 396.696007 579.3495866999999 396.6259997 579.2895280999999 396.56600210000005 Z M 554.0595428 384.6759873 C 554.0195648 384.6759873 553.9895355 384.6759873 553.9495574 384.6659775 C 552.2195766 384.6159897 550.8295617 383.1759872 550.8295617 381.435997 C 550.8295617 379.65596769999996 552.2795742 378.1960067 554.0595428 378.1960067 C 555.64957 378.1960067 556.9795263 379.3559799 557.2395361 380.8659897 C 557.2795752 381.0459824 557.2995337 381.2459946 557.2995337 381.435997 C 557.2995337 383.2159653 555.8495823 384.6759873 554.0595429 384.6759873 Z M 535.6795345 422.0959711 C 534.6695245000001 422.0959711 533.7695610000001 421.6359491 533.179534 420.9159784 C 532.719573 420.3559808 532.4395436 419.63594909999995 532.4395436 418.8559808 C 532.4395436 417.0660027 533.8895560999999 415.6159905 535.6795344 415.6159905 C 537.459564 415.6159905 538.9095765 417.0660027 538.9095765 418.8559808 C 538.9095765 419.6260003 538.6395569 420.3459711 538.1795348999999 420.9059686 C 537.5895689999999 421.6260004 536.6895443999999 422.0959711 535.6795343999999 422.0959711 Z" stroke-linecap="round" />
</g>
</g>
</g>
<g transform="matrix(1.9211538461538462 0 0 1.9211538461538462 642.9948437471884 634.5564482799606)" id="text-logo"  >
<g style=""  paint-order="stroke"   >
		<g transform="matrix(1 0 0 1 0 0)" id="text-logo-path-0"  >
<path style="stroke: none; stroke-width: 0; stroke-dasharray: none; stroke-linecap: butt; stroke-dashoffset: 0; stroke-linejoin: miter; stroke-miterlimit: 4; fill: rgb(116,116,116); fill-rule: nonzero; opacity: 1;"  paint-order="stroke"  transform=" translate(-49.42, 18.005)" d="M 18.42 0 L 18.42 0 L 12.32 0 Q 7.9 0 5.49 -2.35 Q 3.08 -4.7 3.08 -9.13 L 3.08 -9.13 L 3.08 -26.88 Q 3.08 -31.3 5.49 -33.66 Q 7.9 -36.01 12.32 -36.01 L 12.32 -36.01 L 18.42 -36.01 Q 22.79 -36.01 25.23 -33.63 Q 27.66 -31.25 27.66 -26.88 L 27.66 -26.88 L 27.66 -24.25 Q 27.66 -23.02 26.43 -23.02 L 26.43 -23.02 L 21.73 -23.02 Q 20.55 -23.02 20.55 -24.25 L 20.55 -24.25 L 20.55 -26.54 Q 20.55 -28.34 19.8 -29.09 Q 19.04 -29.85 17.25 -29.85 L 17.25 -29.85 L 13.44 -29.85 Q 11.7 -29.85 10.95 -29.09 Q 10.19 -28.34 10.19 -26.54 L 10.19 -26.54 L 10.19 -9.46 Q 10.19 -7.67 10.95 -6.92 Q 11.7 -6.16 13.44 -6.16 L 13.44 -6.16 L 17.25 -6.16 Q 19.04 -6.16 19.8 -6.92 Q 20.55 -7.67 20.55 -9.46 L 20.55 -9.46 L 20.55 -11.76 Q 20.55 -12.99 21.73 -12.99 L 21.73 -12.99 L 26.43 -12.99 Q 27.66 -12.99 27.66 -11.76 L 27.66 -11.76 L 27.66 -9.13 Q 27.66 -4.76 25.23 -2.38 Q 22.79 0 18.42 0 Z M 52.58 -34.83 L 52.58 -34.83 L 52.58 -1.18 Q 52.58 0 51.41 0 L 51.41 0 L 46.65 0 Q 45.47 0 45.47 -1.18 L 45.47 -1.18 L 45.47 -34.83 Q 45.47 -36.01 46.65 -36.01 L 46.65 -36.01 L 51.41 -36.01 Q 52.58 -36.01 52.58 -34.83 Z M 81.37 -6.16 L 81.37 -6.16 L 85.34 -6.16 Q 87.14 -6.16 87.89 -6.92 Q 88.65 -7.67 88.65 -9.46 L 88.65 -9.46 L 88.65 -26.54 Q 88.65 -28.34 87.89 -29.09 Q 87.14 -29.85 85.34 -29.85 L 85.34 -29.85 L 81.37 -29.85 Q 79.58 -29.85 78.85 -29.09 Q 78.12 -28.34 78.12 -26.54 L 78.12 -26.54 L 78.12 -9.46 Q 78.12 -7.67 78.85 -6.92 Q 79.58 -6.16 81.37 -6.16 Z M 86.52 0 L 86.52 0 L 80.25 0 Q 75.82 0 73.42 -2.35 Q 71.01 -4.7 71.01 -9.13 L 71.01 -9.13 L 71.01 -26.88 Q 71.01 -31.3 73.42 -33.66 Q 75.82 -36.01 80.25 -36.01 L 80.25 -36.01 L 86.52 -36.01 Q 90.94 -36.01 93.35 -33.66 Q 95.76 -31.3 95.76 -26.88 L 95.76 -26.88 L 95.76 -9.13 Q 95.76 -4.7 93.35 -2.35 Q 90.94 0 86.52 0 Z" stroke-linecap="round" />
</g>
</g>
</g>
<g transform="matrix(1.9211538461538462 0 0 1.9211538461538462 638.4106258249859 746.9044077911137)" id="tagline-c4e4a041-ccdd-49ac-a453-027fe7ac0da7-logo"  >
<g style=""  paint-order="stroke"   >
		<g transform="matrix(1 0 0 1 0 0)" id="tagline-c4e4a041-ccdd-49ac-a453-027fe7ac0da7-logo-path-0"  >
<path style="stroke: none; stroke-width: 0; stroke-dasharray: none; stroke-linecap: butt; stroke-dashoffset: 0; stroke-linejoin: miter; stroke-miterlimit: 4; fill: rgb(109,109,109); fill-rule: nonzero; opacity: 1;"  paint-order="stroke"  transform=" translate(-320.9149229795441, 5.75)" d="M 0.58 -7.66 L 0.58 -3.64 C 0.58 -2.47 0.96 -1.55 1.72 -0.89 C 2.48 -0.23 3.45 0.11 4.66 0.11 C 5.67 0.11 6.62 -0.16 7.25 -0.53 C 7.88 -0.9 8.31 -1.27 8.55 -1.65 L 7.49 -2.58 C 7.48 -2.57 7.44 -2.51 7.37 -2.42 C 7.21 -2.21 7.16 -2.19 6.95 -2 C 6.74 -1.8 6.53 -1.73 6.19 -1.6 C 5.84 -1.47 5.41 -1.42 4.88 -1.42 C 4.12 -1.42 3.54 -1.66 3.13 -2.13 C 2.72 -2.59 2.5 -3.2 2.5 -3.95 L 2.5 -7.92 C 2.5 -8.53 2.75 -9.05 3.25 -9.47 C 3.75 -9.89 4.39 -10.1 5.19 -10.1 C 5.53 -10.1 5.83 -10.04 6.09 -9.92 C 6.35 -9.8 6.54 -9.67 6.67 -9.54 C 6.8 -9.4 6.94 -9.2 7.11 -8.96 L 8.38 -9.74 C 7.85 -11 6.7 -11.63 4.93 -11.63 C 2.49 -11.67 0.56 -10.19 0.58 -7.66 Z M 19.6 -8.02 L 19.6 -3.21 C 19.6 -0.83 21.85 0.14 23.81 0.14 C 25.05 0.14 26.06 -0.18 26.85 -0.83 C 27.63 -1.48 28.02 -2.36 28.02 -3.49 L 28.02 -8.31 C 28.02 -10.69 25.77 -11.66 23.81 -11.66 C 22.57 -11.66 21.56 -11.34 20.78 -10.69 C 20 -10.04 19.6 -9.15 19.6 -8.02 Z M 21.53 -3.85 L 21.53 -7.45 C 21.53 -8.38 21.69 -9.05 22.03 -9.48 C 22.35 -9.91 22.95 -10.13 23.81 -10.13 C 25.33 -10.13 26.1 -9.4 26.1 -7.66 L 26.1 -4.07 C 26.1 -3.15 25.93 -2.47 25.61 -2.04 C 25.27 -1.61 24.67 -1.39 23.81 -1.39 C 22.29 -1.39 21.53 -2.12 21.53 -3.85 Z M 39.27 0 L 41.19 0 L 41.19 -8.04 L 45.64 0 L 47.58 0 L 47.58 -11.52 L 45.66 -11.52 L 45.66 -3.47 L 41.21 -11.52 L 39.27 -11.52 Z M 59.78 -2.66 L 58.72 -1.71 C 58.98 -1.3 59.44 -0.89 60.15 -0.5 C 60.84 -0.11 61.89 0.16 63.01 0.16 C 64.26 0.16 65.24 -0.14 65.96 -0.74 C 66.68 -1.33 67.04 -2.14 67.04 -3.16 C 67.04 -3.98 66.52 -4.76 65.74 -5.33 C 64.96 -5.88 64.15 -6.26 63.32 -6.51 C 62.76 -6.69 62.37 -6.85 61.9 -7.14 C 61.44 -7.43 61.16 -7.83 61.16 -8.31 C 61.16 -9.52 61.74 -10.12 62.91 -10.12 C 63.49 -10.12 64.05 -9.99 64.56 -9.74 C 65.06 -9.48 65.44 -9.2 65.67 -8.88 L 66.62 -9.76 C 66.46 -9.94 66.32 -10.1 66.18 -10.23 C 66.05 -10.36 65.86 -10.53 65.61 -10.72 C 65.36 -10.91 65.11 -11.07 64.86 -11.19 C 64.36 -11.43 63.59 -11.65 62.81 -11.65 C 62.2 -11.65 61.57 -11.53 60.93 -11.21 C 60 -10.77 59.24 -9.85 59.23 -8.38 C 59.23 -7.64 59.54 -6.96 60 -6.49 C 60.73 -5.74 61.75 -5.27 62.76 -5.02 C 63.41 -4.84 63.97 -4.59 64.43 -4.25 C 64.88 -3.9 65.11 -3.49 65.11 -3.02 C 65.11 -2.5 64.94 -2.08 64.62 -1.78 C 64.28 -1.47 63.7 -1.32 62.88 -1.32 C 62.18 -1.32 61.56 -1.44 60.99 -1.7 C 60.42 -1.95 60.02 -2.27 59.78 -2.66 Z M 78.13 -3.88 C 78.13 -2.72 78.54 -1.75 79.34 -0.99 C 80.14 -0.24 81.15 0.14 82.34 0.14 C 83.18 0.14 83.91 -0.06 84.56 -0.47 C 85.87 -1.27 86.55 -2.63 86.55 -4.17 L 86.55 -11.52 L 84.63 -11.52 L 84.63 -4.75 C 84.63 -3.99 84.58 -3.44 84.39 -2.83 C 84.11 -1.97 83.51 -1.39 82.34 -1.39 C 80.82 -1.39 80.06 -2.43 80.06 -4.54 L 80.06 -11.52 L 78.13 -11.52 Z M 97.83 0 L 104.91 0 L 104.91 -1.53 L 99.76 -1.53 L 99.76 -11.52 L 97.83 -11.52 Z M 115.7 -9.99 L 118.81 -9.99 L 118.81 0 L 120.74 0 L 120.74 -9.99 L 123.84 -9.99 L 123.84 -11.52 L 115.7 -11.52 Z M 134.73 -8.02 L 134.73 -3.21 C 134.73 -0.83 136.98 0.14 138.94 0.14 C 140.18 0.14 141.19 -0.18 141.97 -0.83 C 142.75 -1.48 143.15 -2.36 143.15 -3.49 L 143.15 -8.31 C 143.15 -10.69 140.9 -11.66 138.94 -11.66 C 137.7 -11.66 136.69 -11.34 135.9 -10.69 C 135.12 -10.04 134.73 -9.15 134.73 -8.02 Z M 136.65 -3.85 L 136.65 -7.45 C 136.65 -8.38 136.82 -9.05 137.15 -9.48 C 137.48 -9.91 138.07 -10.13 138.94 -10.13 C 140.46 -10.13 141.22 -9.4 141.22 -7.66 L 141.22 -4.07 C 141.22 -3.15 141.05 -2.47 140.73 -2.04 C 140.39 -1.61 139.8 -1.39 138.94 -1.39 C 137.42 -1.39 136.65 -2.12 136.65 -3.85 Z M 154.39 0 L 156.32 0 L 156.32 -4.77 L 157.54 -4.77 C 158.27 -4.42 158.87 -3.81 159.34 -2.96 C 159.8 -2.1 160.11 -1.12 160.28 0 L 162.4 0 C 161.73 -2.56 160.85 -4.17 159.56 -5.08 C 160.25 -5.36 160.84 -5.78 161.33 -6.34 C 161.8 -6.89 162.04 -7.48 162.04 -8.12 C 162.04 -9.25 161.55 -10.18 160.82 -10.71 C 160.09 -11.24 159.21 -11.52 158.29 -11.52 L 154.39 -11.52 Z M 157.77 -6.32 L 156.32 -6.32 L 156.32 -9.99 L 158.03 -9.99 C 159.42 -9.99 160.11 -9.4 160.11 -8.19 C 160.11 -7.67 159.88 -7.23 159.44 -6.87 C 158.99 -6.5 158.43 -6.32 157.77 -6.32 Z M 173.41 0 L 176.96 0 L 176.96 -1.24 L 176.15 -1.24 L 176.15 -10.27 L 176.96 -10.27 L 176.96 -11.52 L 173.41 -11.52 L 173.41 -10.27 L 174.22 -10.27 L 174.22 -1.24 L 173.41 -1.24 Z M 187.88 0 L 189.76 0 L 190.74 -2.66 L 195.06 -2.66 L 196.03 0 L 198.08 0 L 193.89 -11.52 L 192.08 -11.52 Z M 191.19 -3.9 L 192.9 -8.6 L 194.61 -3.9 Z M 222.57 0 L 226.11 0 L 226.11 -1.24 L 225.31 -1.24 L 225.31 -10.27 L 226.11 -10.27 L 226.11 -11.52 L 222.57 -11.52 L 222.57 -10.27 L 223.38 -10.27 L 223.38 -1.24 L 222.57 -1.24 Z M 237.32 0 L 239.25 0 L 239.25 -8.04 L 243.7 0 L 245.64 0 L 245.64 -11.52 L 243.71 -11.52 L 243.71 -3.47 L 239.27 -11.52 L 237.32 -11.52 Z M 256.65 -9.99 L 259.77 -9.99 L 259.77 0 L 261.69 0 L 261.69 -9.99 L 264.79 -9.99 L 264.79 -11.52 L 256.65 -11.52 Z M 275.8 0 L 282.88 0 L 282.88 -1.53 L 277.73 -1.53 L 277.73 -5.22 L 280.85 -5.22 L 280.85 -6.75 L 277.73 -6.75 L 277.73 -9.98 L 282.33 -9.98 L 282.33 -11.52 L 275.8 -11.52 Z M 293.91 -7.66 L 293.91 -3.64 C 293.91 -2.47 294.44 -1.48 295.25 -0.86 C 296.07 -0.25 297.16 0.11 298.35 0.11 C 299.72 0.11 300.81 -0.26 301.62 -1 C 302.43 -1.73 302.83 -2.81 302.83 -4.23 L 302.83 -6.32 L 298.95 -6.32 L 298.95 -4.79 L 301.13 -4.79 C 301.13 -4.08 301.08 -3.57 300.87 -2.94 C 300.58 -2.04 299.91 -1.45 298.57 -1.42 C 297.79 -1.42 297.14 -1.66 296.62 -2.14 C 296.1 -2.62 295.83 -3.22 295.83 -3.95 L 295.83 -7.92 C 295.83 -8.53 296.12 -9.04 296.7 -9.47 C 297.28 -9.89 297.98 -10.1 298.79 -10.1 C 299.73 -10.1 300.46 -9.72 300.98 -8.96 L 302.26 -9.74 C 302 -10.34 301.53 -10.82 300.87 -11.14 C 300.2 -11.47 299.42 -11.63 298.53 -11.63 C 297.7 -11.63 296.94 -11.48 296.25 -11.18 C 295.55 -10.88 294.99 -10.42 294.56 -9.82 C 294.13 -9.2 293.91 -8.48 293.91 -7.66 Z M 314.02 0 L 315.95 0 L 315.95 -4.77 L 317.17 -4.77 C 317.9 -4.42 318.51 -3.81 318.97 -2.96 C 319.44 -2.1 319.74 -1.12 319.91 0 L 322.03 0 C 321.36 -2.56 320.48 -4.17 319.19 -5.08 C 319.88 -5.36 320.47 -5.78 320.96 -6.34 C 321.43 -6.89 321.67 -7.48 321.67 -8.12 C 321.67 -9.25 321.19 -10.18 320.46 -10.71 C 319.73 -11.24 318.84 -11.52 317.92 -11.52 L 314.02 -11.52 Z M 317.41 -6.32 L 315.95 -6.32 L 315.95 -9.99 L 317.66 -9.99 C 319.05 -9.99 319.74 -9.4 319.74 -8.19 C 319.74 -7.67 319.52 -7.23 319.07 -6.87 C 318.62 -6.5 318.07 -6.32 317.41 -6.32 Z M 332.86 0 L 334.75 0 L 335.73 -2.66 L 340.04 -2.66 L 341.02 0 L 343.07 0 L 338.87 -11.52 L 337.07 -11.52 Z M 336.17 -3.9 L 337.89 -8.6 L 339.59 -3.9 Z M 354.1 0 L 361.17 0 L 361.17 -1.53 L 356.02 -1.53 L 356.02 -11.52 L 354.1 -11.52 Z M 385.74 -8.02 L 385.74 -3.21 C 385.74 -0.83 387.99 0.14 389.95 0.14 C 391.19 0.14 392.2 -0.18 392.98 -0.83 C 393.76 -1.48 394.16 -2.36 394.16 -3.49 L 394.16 -8.31 C 394.16 -10.69 391.91 -11.66 389.95 -11.66 C 388.71 -11.66 387.7 -11.34 386.92 -10.69 C 386.13 -10.04 385.74 -9.15 385.74 -8.02 Z M 387.66 -3.85 L 387.66 -7.45 C 387.66 -8.38 387.83 -9.05 388.16 -9.48 C 388.49 -9.91 389.09 -10.13 389.95 -10.13 C 391.47 -10.13 392.23 -9.4 392.23 -7.66 L 392.23 -4.07 C 392.23 -3.15 392.07 -2.47 391.74 -2.04 C 391.41 -1.61 390.81 -1.39 389.95 -1.39 C 388.43 -1.39 387.66 -2.12 387.66 -3.85 Z M 405.4 0 L 407.33 0 L 407.33 -4.77 L 408.55 -4.77 C 409.28 -4.42 409.88 -3.81 410.35 -2.96 C 410.82 -2.1 411.12 -1.12 411.29 0 L 413.41 0 C 412.74 -2.56 411.86 -4.17 410.57 -5.08 C 411.26 -5.36 411.85 -5.78 412.34 -6.34 C 412.81 -6.89 413.05 -7.48 413.05 -8.12 C 413.05 -9.25 412.57 -10.18 411.84 -10.71 C 411.11 -11.24 410.22 -11.52 409.3 -11.52 L 405.4 -11.52 Z M 408.79 -6.32 L 407.33 -6.32 L 407.33 -9.99 L 409.04 -9.99 C 410.43 -9.99 411.12 -9.4 411.12 -8.19 C 411.12 -7.67 410.9 -7.23 410.45 -6.87 C 410 -6.5 409.45 -6.32 408.79 -6.32 Z M 424.39 -7.66 L 424.39 -3.64 C 424.39 -2.47 424.92 -1.48 425.74 -0.86 C 426.55 -0.25 427.64 0.11 428.83 0.11 C 430.2 0.11 431.29 -0.26 432.1 -1 C 432.91 -1.73 433.31 -2.81 433.31 -4.23 L 433.31 -6.32 L 429.43 -6.32 L 429.43 -4.79 L 431.61 -4.79 C 431.61 -4.08 431.56 -3.57 431.35 -2.94 C 431.06 -2.04 430.39 -1.45 429.05 -1.42 C 428.27 -1.42 427.62 -1.66 427.1 -2.14 C 426.58 -2.62 426.32 -3.22 426.32 -3.95 L 426.32 -7.92 C 426.32 -8.53 426.61 -9.04 427.19 -9.47 C 427.77 -9.89 428.46 -10.1 429.27 -10.1 C 430.21 -10.1 430.94 -9.72 431.46 -8.96 L 432.74 -9.74 C 432.48 -10.34 432.01 -10.82 431.35 -11.14 C 430.68 -11.47 429.9 -11.63 429.01 -11.63 C 428.18 -11.63 427.42 -11.48 426.73 -11.18 C 426.03 -10.88 425.47 -10.42 425.04 -9.82 C 424.61 -9.2 424.39 -8.48 424.39 -7.66 Z M 444.21 0 L 446.1 0 L 447.08 -2.66 L 451.39 -2.66 L 452.37 0 L 454.42 0 L 450.22 -11.52 L 448.42 -11.52 Z M 447.53 -3.9 L 449.24 -8.6 L 450.95 -3.9 Z M 465.45 0 L 467.38 0 L 467.38 -8.04 L 471.82 0 L 473.77 0 L 473.77 -11.52 L 471.84 -11.52 L 471.84 -3.47 L 467.39 -11.52 L 465.45 -11.52 Z M 485 0 L 488.54 0 L 488.54 -1.24 L 487.73 -1.24 L 487.73 -10.27 L 488.54 -10.27 L 488.54 -11.52 L 485 -11.52 L 485 -10.27 L 485.81 -10.27 L 485.81 -1.24 L 485 -1.24 Z M 499.5 0 L 508 0 L 508 -1.53 L 502.29 -1.53 L 508.32 -11.52 L 500.03 -11.52 L 500.03 -9.99 L 505.53 -9.99 Z M 519.14 0 L 521.03 0 L 522 -2.66 L 526.32 -2.66 L 527.29 0 L 529.34 0 L 525.15 -11.52 L 523.35 -11.52 Z M 522.45 -3.9 L 524.16 -8.6 L 525.87 -3.9 Z M 540.23 -7.66 L 540.23 -3.64 C 540.23 -2.47 540.61 -1.55 541.38 -0.89 C 542.13 -0.23 543.11 0.11 544.31 0.11 C 545.32 0.11 546.27 -0.16 546.9 -0.53 C 547.54 -0.9 547.97 -1.27 548.21 -1.65 L 547.14 -2.58 C 547.13 -2.57 547.1 -2.51 547.02 -2.42 C 546.86 -2.21 546.82 -2.19 546.61 -2 C 546.39 -1.8 546.18 -1.73 545.84 -1.6 C 545.5 -1.47 545.06 -1.42 544.53 -1.42 C 543.78 -1.42 543.2 -1.66 542.78 -2.13 C 542.37 -2.59 542.16 -3.2 542.16 -3.95 L 542.16 -7.92 C 542.16 -8.53 542.4 -9.05 542.91 -9.47 C 543.41 -9.89 544.05 -10.1 544.84 -10.1 C 545.18 -10.1 545.48 -10.04 545.74 -9.92 C 546 -9.8 546.19 -9.67 546.32 -9.54 C 546.46 -9.4 546.6 -9.2 546.76 -8.96 L 548.04 -9.74 C 547.5 -11 546.35 -11.63 544.58 -11.63 C 542.14 -11.67 540.22 -10.19 540.23 -7.66 Z M 559.27 0 L 562.82 0 L 562.82 -1.24 L 562.01 -1.24 L 562.01 -10.27 L 562.82 -10.27 L 562.82 -11.52 L 559.27 -11.52 L 559.27 -10.27 L 560.08 -10.27 L 560.08 -1.24 L 559.27 -1.24 Z M 573.9 -8.02 L 573.9 -3.21 C 573.9 -0.83 576.15 0.14 578.11 0.14 C 579.35 0.14 580.36 -0.18 581.15 -0.83 C 581.93 -1.48 582.32 -2.36 582.32 -3.49 L 582.32 -8.31 C 582.32 -10.69 580.07 -11.66 578.11 -11.66 C 576.87 -11.66 575.86 -11.34 575.08 -10.69 C 574.3 -10.04 573.9 -9.15 573.9 -8.02 Z M 575.83 -3.85 L 575.83 -7.45 C 575.83 -8.38 575.99 -9.05 576.33 -9.48 C 576.65 -9.91 577.25 -10.13 578.11 -10.13 C 579.63 -10.13 580.4 -9.4 580.4 -7.66 L 580.4 -4.07 C 580.4 -3.15 580.23 -2.47 579.91 -2.04 C 579.57 -1.61 578.97 -1.39 578.11 -1.39 C 576.59 -1.39 575.83 -2.12 575.83 -3.85 Z M 593.57 0 L 595.49 0 L 595.49 -8.04 L 599.94 0 L 601.88 0 L 601.88 -11.52 L 599.96 -11.52 L 599.96 -3.47 L 595.51 -11.52 L 593.57 -11.52 Z M 612.93 0 L 614.82 0 L 615.8 -2.66 L 620.11 -2.66 L 621.09 0 L 623.14 0 L 618.95 -11.52 L 617.14 -11.52 Z M 616.25 -3.9 L 617.96 -8.6 L 619.67 -3.9 Z M 634.17 0 L 641.25 0 L 641.25 -1.53 L 636.1 -1.53 L 636.1 -11.52 L 634.17 -11.52 Z" stroke-linecap="round" />
</g>
</g>
</g>
<g transform="matrix(1.9211538461538462 0 0 1.9211538461538462 800.5909011946603 635.0089184338068)" id="tagline-71851820-7674-435c-aa0d-95a9646d9747-logo"  >
<g style=""  paint-order="stroke"   >
		<g transform="matrix(1 0 0 1 0 0)" id="tagline-71851820-7674-435c-aa0d-95a9646d9747-logo-path-0"  >
<path style="stroke: none; stroke-width: 0; stroke-dasharray: none; stroke-linecap: butt; stroke-dashoffset: 0; stroke-linejoin: miter; stroke-miterlimit: 4; fill: rgb(116,116,116); fill-rule: nonzero; opacity: 1;"  paint-order="stroke"  transform=" translate(-23.295, 7.715)" d="M 5.26 -8.98 L 5.26 -8.98 L 6.48 -8.98 Q 7.27 -8.98 7.62 -9.3 Q 7.97 -9.62 7.97 -10.37 L 7.97 -10.37 L 7.97 -11.5 Q 7.97 -12.24 7.62 -12.56 Q 7.27 -12.89 6.48 -12.89 L 6.48 -12.89 L 5.33 -12.89 Q 4.56 -12.89 4.25 -12.56 Q 3.94 -12.24 3.94 -11.5 L 3.94 -11.5 L 3.94 -10.9 Q 3.94 -10.39 3.43 -10.39 L 3.43 -10.39 L 1.39 -10.39 Q 0.89 -10.39 0.89 -10.9 L 0.89 -10.9 L 0.89 -11.54 Q 0.89 -13.42 1.92 -14.42 Q 2.95 -15.43 4.85 -15.43 L 4.85 -15.43 L 6.98 -15.43 Q 8.88 -15.43 9.91 -14.42 Q 10.94 -13.42 10.94 -11.54 L 10.94 -11.54 L 10.94 -10.34 Q 10.94 -8.33 9.05 -7.73 L 9.05 -7.73 Q 10.94 -7.32 10.94 -5.11 L 10.94 -5.11 L 10.94 -3.89 Q 10.94 -2.02 9.91 -1.01 Q 8.88 0 6.98 0 L 6.98 0 L 4.85 0 Q 2.95 0 1.92 -1.01 Q 0.89 -2.02 0.89 -3.89 L 0.89 -3.89 L 0.89 -4.56 Q 0.89 -5.09 1.39 -5.09 L 1.39 -5.09 L 3.43 -5.09 Q 3.94 -5.09 3.94 -4.56 L 3.94 -4.56 L 3.94 -3.94 Q 3.94 -3.17 4.25 -2.86 Q 4.56 -2.54 5.33 -2.54 L 5.33 -2.54 L 6.48 -2.54 Q 7.27 -2.54 7.62 -2.87 Q 7.97 -3.19 7.97 -3.94 L 7.97 -3.94 L 7.97 -5.11 Q 7.97 -5.86 7.62 -6.18 Q 7.27 -6.5 6.48 -6.5 L 6.48 -6.5 L 5.26 -6.5 Q 4.75 -6.5 4.75 -7.01 L 4.75 -7.01 L 4.75 -8.45 Q 4.75 -8.98 5.26 -8.98 Z M 22.8 -2.64 L 22.8 -2.64 L 24.17 -2.64 Q 24.94 -2.64 25.26 -2.96 Q 25.58 -3.29 25.58 -4.06 L 25.58 -4.06 L 25.58 -5.71 Q 25.58 -6.48 25.26 -6.8 Q 24.94 -7.13 24.17 -7.13 L 24.17 -7.13 L 21.41 -7.13 L 21.41 -4.06 Q 21.41 -3.29 21.72 -2.96 Q 22.03 -2.64 22.8 -2.64 Z M 24.67 0 L 24.67 0 L 22.32 0 Q 20.42 0 19.39 -1.01 Q 18.36 -2.02 18.36 -3.91 L 18.36 -3.91 L 18.36 -11.52 Q 18.36 -13.42 19.39 -14.42 Q 20.42 -15.43 22.32 -15.43 L 22.32 -15.43 L 27.22 -15.43 Q 27.72 -15.43 27.72 -14.93 L 27.72 -14.93 L 27.72 -13.27 Q 27.72 -12.79 27.22 -12.79 L 27.22 -12.79 L 22.8 -12.79 Q 22.06 -12.79 21.73 -12.47 Q 21.41 -12.14 21.41 -11.38 L 21.41 -11.38 L 21.41 -9.77 L 24.67 -9.77 Q 26.57 -9.77 27.6 -8.76 Q 28.63 -7.75 28.63 -5.86 L 28.63 -5.86 L 28.63 -3.91 Q 28.63 -2.02 27.6 -1.01 Q 26.57 0 24.67 0 Z M 41.16 -7.85 L 41.16 -7.85 L 40.03 -7.85 Q 39.41 -7.85 39.08 -7.34 Q 38.76 -6.84 38.4 -6.84 L 38.4 -6.84 L 36.41 -6.84 Q 35.9 -6.84 35.9 -7.32 L 35.9 -7.32 L 35.9 -14.93 Q 35.9 -15.43 36.41 -15.43 L 36.41 -15.43 L 44.76 -15.43 Q 45.26 -15.43 45.26 -14.93 L 45.26 -14.93 L 45.26 -13.1 Q 45.26 -12.6 44.76 -12.6 L 44.76 -12.6 L 38.95 -12.6 L 38.95 -9.07 Q 39.36 -10.27 40.97 -10.27 L 40.97 -10.27 L 41.98 -10.27 Q 45.7 -10.27 45.7 -6.55 L 45.7 -6.55 L 45.7 -3.91 Q 45.7 -2.04 44.66 -1.02 Q 43.63 0 41.76 0 L 41.76 0 L 39.65 0 Q 37.75 0 36.72 -1.01 Q 35.69 -2.02 35.69 -3.91 L 35.69 -3.91 L 35.69 -4.39 Q 35.69 -4.92 36.19 -4.92 L 36.19 -4.92 L 38.23 -4.92 Q 38.74 -4.92 38.74 -4.39 L 38.74 -4.39 L 38.74 -3.94 Q 38.74 -3.19 39.06 -2.87 Q 39.38 -2.54 40.13 -2.54 L 40.13 -2.54 L 41.26 -2.54 Q 42.02 -2.54 42.38 -2.87 Q 42.74 -3.19 42.74 -3.94 L 42.74 -3.94 L 42.74 -6.1 Q 42.74 -7.1 42.41 -7.48 Q 42.07 -7.85 41.16 -7.85 Z" stroke-linecap="round" />
</g>
</g>
</g>
</svg>